<?xml version="1.0" encoding="UTF-8"?>
<!DOCTYPE svg PUBLIC "-//W3C//DTD SVG 1.1//EN" "http://www.w3.org/Graphics/SVG/1.1/DTD/svg11.dtd">
<!-- Creator: CorelDRAW X7 -->
<svg xmlns="http://www.w3.org/2000/svg" xml:space="preserve" width="0.833331in" height="0.623331in" version="1.1" style="shape-rendering:geometricPrecision; text-rendering:geometricPrecision; image-rendering:optimizeQuality; fill-rule:evenodd; clip-rule:evenodd"
viewBox="0 0 833 623"
 xmlns:xlink="http://www.w3.org/1999/xlink">
 <defs>
  <style type="text/css">
   <![CDATA[
    .str1 {stroke:#C83438;stroke-width:13.8858}
    .str0 {stroke:#282829;stroke-width:13.8858}
    .str2 {stroke:#ED3237;stroke-width:6.94094}
    .fil4 {fill:#FFF212}
    .fil3 {fill:#C83438}
    .fil1 {fill:#282829}
    .fil2 {fill:#1F6942}
    .fil0 {fill:white;fill-rule:nonzero}
   ]]>
  </style>
     <clipPath id="id0">
      <path d="M64 244l427 0 0 221 -427 0 0 -221z"/>
     </clipPath>
 </defs>
 <g id="Layer_x0020_1">
  <metadata id="CorelCorpID_0Corel-Layer"/>
  <g id="_753932960">
   <path class="fil0 str0" d="M112 227l0 -90 230 -107 265 0 0 351 0 92 125 0 0 129 -620 0 0 -129 155 0 0 -246 -155 0zm12 252l0 118 596 0 0 -118 -125 0 0 -92 0 -351 -249 0 -222 103 0 83 155 0 0 257 -155 0zm541 27l0 65 -484 0 0 -65 154 0 0 -311 -154 0 0 -44 192 -90 167 0 0 351 0 94 125 0z"/>
   <polygon class="fil1 str0" points="264,242 612,242 612,248 264,248 "/>
   <polygon class="fil1 str0" points="266,457 611,457 611,464 266,464 "/>
   <polygon class="fil2" points="643,248 226,248 226,458 643,458 "/>
   <g>
    <g style="clip-path:url(#id0)">
     <image x="64" y="244" width="427" height="221" xlink:href="logo onepress_Images\logo onepress_ImgID1.png"/>
    </g>
   </g>
   <path class="fil3 str1" d="M86 309c0,24 0,73 0,98 0,24 1,25 1,28 0,4 0,10 0,14 0,3 1,3 17,3 15,0 46,-1 62,-1 16,0 17,0 18,0 1,0 1,-1 1,-4 0,-3 0,-9 0,-19 0,-9 0,-22 0,-29 0,-6 0,-6 9,-6 9,0 28,1 48,1 20,0 42,-1 61,-2 18,-1 33,-2 49,-5 16,-2 32,-5 47,-8 14,-4 25,-9 35,-13 9,-4 16,-7 22,-12 5,-4 9,-9 11,-14 2,-6 2,-13 0,-19 -3,-7 -7,-14 -14,-20 -7,-6 -16,-11 -28,-16 -12,-6 -27,-12 -40,-17 -14,-5 -26,-8 -32,-10 -6,-1 -6,-1 -1,1 4,2 14,6 21,10 8,4 13,7 18,11 5,4 10,8 13,12 4,4 7,8 8,12 1,4 1,8 0,12 -1,4 -3,8 -6,12 -3,4 -7,7 -15,11 -7,3 -19,7 -32,10 -14,2 -31,4 -55,4 -23,1 -54,2 -75,2 -21,1 -33,1 -39,1 -6,0 -6,0 -6,-6 0,-6 0,-18 2,-23 1,-6 4,-6 23,-6 18,0 52,0 71,1 18,1 21,2 25,3 3,2 8,5 10,8 3,4 4,7 5,9 1,2 3,2 10,1 6,0 18,-3 29,-6 10,-4 19,-8 25,-11 6,-4 10,-8 11,-11 1,-4 0,-7 -4,-9 -4,-3 -11,-6 -19,-9 -7,-2 -15,-5 -26,-7 -11,-2 -26,-4 -37,-5 -12,-1 -21,-1 -57,-1 -35,0 -97,0 -129,0 -32,0 -34,0 -36,0 -1,0 -1,0 -1,25z"/>
   <path class="fil4 str1" d="M168 356c-16,0 -49,0 -65,0 -17,0 -17,0 -17,0 0,0 0,0 0,-12 0,-12 1,-36 1,-48 0,-12 0,-12 0,-12 0,0 0,0 35,0 34,0 102,0 141,0 40,0 51,1 63,3 11,1 22,4 31,6 10,3 18,5 23,8 6,2 9,5 11,7 2,2 3,5 1,8 -2,4 -7,8 -11,11 -5,3 -11,5 -17,8 -6,2 -13,4 -19,6 -6,1 -12,2 -16,3 -4,0 -7,0 -9,0 -1,-1 -2,-2 -3,-3 -1,-2 -2,-4 -4,-6 -2,-3 -5,-5 -9,-7 -3,-2 -6,-4 -12,-4 -5,-1 -14,-2 -30,-2 -17,0 -42,-1 -56,0 -14,0 -17,1 -19,5 -2,3 -3,10 -3,15 0,5 0,9 0,11 1,2 1,3 -16,3z"/>
   <path class="fil3 str1" d="M552 418c0,19 0,20 3,21 2,1 6,2 11,2 6,1 12,2 21,2 10,0 22,-1 36,-3 14,-2 29,-5 42,-8 13,-4 24,-8 34,-14 10,-5 18,-13 23,-21 4,-8 5,-17 5,-25 -1,-7 -3,-13 -6,-18 -3,-4 -7,-8 -11,-12 -4,-3 -7,-5 -9,-6 -1,-1 -1,-1 5,0 6,1 18,2 31,4 12,2 24,5 36,8 12,3 24,6 32,10 9,4 15,8 18,13 3,5 3,10 1,16 -2,6 -5,12 -13,18 -9,7 -22,14 -36,20 -15,5 -32,10 -50,13 -19,4 -39,6 -61,8 -23,2 -48,2 -91,3 -42,0 -103,0 -133,0 -30,1 -29,1 -28,-1 0,-1 1,-3 2,-5 1,-1 2,-1 7,-1 5,0 14,0 21,-1 7,-1 13,-4 15,-25 2,-20 1,-59 1,-79 -1,-20 -1,-21 0,-21 1,-1 3,0 12,2 9,1 24,3 36,5 13,1 21,2 28,2 7,0 12,0 15,1 2,0 2,1 2,19 0,18 0,55 1,73z"/>
   <path class="fil4 str2" d="M424 254c1,0 2,1 3,3 2,1 3,2 6,4 2,1 5,3 8,4 3,2 6,3 10,5 4,1 8,3 13,4 5,2 10,3 14,4 5,1 8,2 12,3 4,0 8,1 12,1 5,1 10,1 15,2 6,1 12,1 18,1 5,1 10,1 15,1 5,1 9,1 14,1 4,0 9,0 17,0 9,1 21,1 31,1 11,1 20,1 28,1 9,0 16,1 23,1 7,1 14,2 20,2 6,1 10,1 14,2 5,1 9,1 13,2 5,1 10,2 15,4 6,1 12,3 16,5 5,2 9,3 12,5 4,2 8,4 10,6 3,2 6,3 8,5 1,1 2,2 3,3 0,0 0,0 -1,0 -1,-1 -3,-2 -6,-3 -2,-1 -5,-2 -8,-3 -3,-1 -7,-2 -11,-3 -3,-1 -7,-2 -11,-3 -4,-1 -7,-2 -11,-2 -3,-1 -6,-1 -9,-2 -2,0 -5,-1 -8,-1 -4,-1 -8,-1 -12,-2 -5,0 -10,-1 -15,-1 -6,-1 -12,-1 -17,-2 -5,0 -9,-1 -14,-1 -4,0 -9,0 -15,-1 -7,0 -17,-1 -23,-1 -6,0 -8,0 -11,-1 -3,0 -7,0 -12,0 -5,-1 -11,-1 -17,-1 -6,-1 -13,-1 -19,-2 -6,0 -12,-1 -21,-2 -8,-1 -18,-2 -27,-4 -8,-1 -14,-2 -21,-4 -7,-1 -14,-3 -21,-6 -6,-2 -13,-5 -18,-8 -6,-3 -10,-6 -12,-7 -3,-2 -2,-2 -2,-1 0,0 1,1 2,2 1,1 3,3 6,6 3,2 7,5 11,7 3,3 7,5 10,6 4,2 7,3 11,5 3,1 8,3 13,5 5,1 11,3 16,4 5,1 9,2 15,3 6,1 13,2 20,3 8,1 16,2 23,3 6,0 10,0 12,1 2,0 2,0 5,0 4,0 11,0 17,1 5,0 10,0 16,1 6,0 13,0 19,0 5,1 8,1 12,1 4,0 8,0 13,0 4,1 8,1 12,1 5,1 11,1 18,2 7,0 15,1 23,2 9,1 17,2 26,4 9,1 19,3 27,5 8,1 13,3 18,4 5,2 9,3 13,5 4,1 8,3 11,5 4,2 8,4 11,7 3,2 5,3 7,6 2,2 4,4 6,6 2,3 3,5 4,6 0,1 0,1 -1,0 -1,-1 -2,-3 -4,-5 -2,-1 -4,-3 -6,-4 -2,-2 -5,-3 -8,-5 -3,-2 -6,-3 -10,-5 -4,-1 -8,-3 -12,-4 -5,-1 -9,-3 -14,-4 -5,-1 -11,-2 -17,-3 -5,-1 -10,-2 -15,-3 -5,-1 -10,-1 -15,-2 -6,-1 -12,-2 -17,-2 -4,-1 -9,-1 -14,-2 -5,0 -11,0 -19,-1 -7,-1 -16,-1 -22,-2 -7,0 -11,0 -16,-1 -5,0 -11,0 -20,-1 -8,0 -19,-1 -28,-2 -9,0 -17,-1 -24,-2 -8,-1 -14,-1 -21,-2 -6,-1 -13,-2 -21,-3 -8,-2 -16,-4 -23,-5 -7,-2 -12,-4 -17,-5 -5,-2 -10,-4 -15,-6 -4,-2 -8,-4 -12,-7 -4,-3 -10,-6 -14,-10 -4,-3 -6,-6 -9,-9 -3,-3 -5,-6 -7,-8 -2,-3 -3,-5 -4,-7 0,-1 0,-1 0,0z"/>
  </g>
 </g>
</svg>
